<svg width="131" height="32" viewBox="0 0 131 32" fill="none" xmlns="http://www.w3.org/2000/svg">
<g filter="url(#filter0_d_2_1746)">
<circle cx="16" cy="16" r="9" transform="rotate(-180 16 16)" stroke="url(#paint0_linear_2_1746)" stroke-width="5" stroke-linecap="square"/>
</g>
<path d="M42.8773 24H39.3373V9.75H42.0673L42.5173 11.64C43.1773 10.98 43.8873 10.46 44.6473 10.08C45.4073 9.68 46.2873 9.48 47.2873 9.48C48.2873 9.48 49.1273 9.68 49.8073 10.08C50.4873 10.46 50.9973 11.01 51.3373 11.73C52.0173 11.03 52.7673 10.48 53.5873 10.08C54.4073 9.68 55.3073 9.48 56.2873 9.48C57.7873 9.48 58.9273 9.89 59.7073 10.71C60.4873 11.53 60.8773 12.7 60.8773 14.22V24H57.3373V14.7C57.3373 13.94 57.1573 13.34 56.7973 12.9C56.4373 12.46 55.8873 12.24 55.1473 12.24C54.5673 12.24 53.9873 12.38 53.4073 12.66C52.8273 12.94 52.3073 13.34 51.8473 13.86C51.8673 14 51.8773 14.13 51.8773 14.25C51.8773 14.35 51.8773 14.47 51.8773 14.61V24H48.3373V14.7C48.3373 13.94 48.1573 13.34 47.7973 12.9C47.4373 12.46 46.8873 12.24 46.1473 12.24C45.5673 12.24 44.9873 12.4 44.4073 12.72C43.8473 13.02 43.3373 13.44 42.8773 13.98V24ZM77.1298 17.67H67.4398V17.79C67.4398 19.09 67.8398 20.06 68.6398 20.7C69.4598 21.34 70.5298 21.66 71.8498 21.66C72.6298 21.66 73.3198 21.59 73.9198 21.45C74.5398 21.31 75.1298 21.12 75.6898 20.88L76.3798 23.37C75.7998 23.63 75.1098 23.85 74.3098 24.03C73.5098 24.21 72.5798 24.3 71.5198 24.3C70.4598 24.3 69.4598 24.16 68.5198 23.88C67.5998 23.6 66.7898 23.16 66.0898 22.56C65.3898 21.96 64.8298 21.2 64.4098 20.28C64.0098 19.36 63.8098 18.26 63.8098 16.98C63.8098 15.86 63.9798 14.84 64.3198 13.92C64.6598 13 65.1398 12.21 65.7598 11.55C66.3798 10.89 67.1298 10.38 68.0098 10.02C68.8898 9.66 69.8598 9.48 70.9198 9.48C72.8198 9.48 74.3298 10.06 75.4498 11.22C76.5698 12.38 77.1298 13.99 77.1298 16.05V17.67ZM73.4998 15.21C73.4998 14.79 73.4498 14.39 73.3498 14.01C73.2498 13.61 73.0898 13.26 72.8698 12.96C72.6498 12.66 72.3598 12.43 71.9998 12.27C71.6598 12.09 71.2498 12 70.7698 12C69.8698 12 69.1298 12.3 68.5498 12.9C67.9698 13.5 67.6198 14.29 67.4998 15.27L73.4998 15.21ZM80.0299 24V9.75H82.7599L83.2099 12.42C83.5499 11.6 84.0899 10.91 84.8299 10.35C85.5699 9.77 86.4899 9.48 87.5899 9.48C88.0699 9.48 88.4899 9.53 88.8499 9.63C89.2099 9.73 89.5099 9.84 89.7499 9.96L89.1499 12.84C88.9299 12.72 88.6599 12.62 88.3399 12.54C88.0199 12.44 87.6299 12.39 87.1699 12.39C86.1499 12.39 85.2899 12.74 84.5899 13.44C83.8899 14.14 83.5399 15.25 83.5399 16.77V24H80.0299ZM97.8954 21.66C98.5354 21.66 99.0954 21.59 99.5754 21.45C100.075 21.29 100.495 21.12 100.835 20.94L101.525 23.43C101.085 23.65 100.505 23.85 99.7854 24.03C99.0654 24.21 98.2754 24.3 97.4154 24.3C96.3554 24.3 95.3654 24.15 94.4454 23.85C93.5254 23.53 92.7254 23.06 92.0454 22.44C91.3654 21.82 90.8254 21.05 90.4254 20.13C90.0454 19.21 89.8554 18.14 89.8554 16.92C89.8554 15.8 90.0354 14.78 90.3954 13.86C90.7754 12.94 91.2954 12.16 91.9554 11.52C92.6354 10.86 93.4354 10.36 94.3554 10.02C95.2954 9.66 96.3254 9.48 97.4454 9.48C98.0654 9.48 98.7054 9.54 99.3654 9.66C100.025 9.78 100.735 10.02 101.495 10.38L100.745 12.9C100.285 12.64 99.8154 12.44 99.3354 12.3C98.8554 12.16 98.3554 12.09 97.8354 12.09C96.5154 12.09 95.4554 12.5 94.6554 13.32C93.8554 14.12 93.4554 15.29 93.4554 16.83C93.4554 17.73 93.5854 18.49 93.8454 19.11C94.1054 19.73 94.4454 20.23 94.8654 20.61C95.2854 20.99 95.7554 21.26 96.2754 21.42C96.8154 21.58 97.3554 21.66 97.8954 21.66ZM113.618 9.75H117.158V24H114.488L114.068 22.35H113.948C113.488 22.83 112.878 23.28 112.118 23.7C111.358 24.1 110.408 24.3 109.268 24.3C107.768 24.3 106.568 23.88 105.668 23.04C104.768 22.2 104.318 20.94 104.318 19.26V9.75H107.858V18.9C107.858 19.88 108.078 20.58 108.518 21C108.978 21.4 109.558 21.6 110.258 21.6C110.998 21.6 111.638 21.45 112.178 21.15C112.738 20.83 113.218 20.44 113.618 19.98V9.75ZM120.899 24V9.75H123.629L124.079 12.42C124.419 11.6 124.959 10.91 125.699 10.35C126.439 9.77 127.359 9.48 128.459 9.48C128.939 9.48 129.359 9.53 129.719 9.63C130.079 9.73 130.379 9.84 130.619 9.96L130.019 12.84C129.799 12.72 129.529 12.62 129.209 12.54C128.889 12.44 128.499 12.39 128.039 12.39C127.019 12.39 126.159 12.74 125.459 13.44C124.759 14.14 124.409 15.25 124.409 16.77V24H120.899Z" fill="url(#paint1_linear_2_1746)"/>
<defs>
<filter id="filter0_d_2_1746" x="0.5" y="0.5" width="31" height="31" filterUnits="userSpaceOnUse" color-interpolation-filters="sRGB">
<feFlood flood-opacity="0" result="BackgroundImageFix"/>
<feColorMatrix in="SourceAlpha" type="matrix" values="0 0 0 0 0 0 0 0 0 0 0 0 0 0 0 0 0 0 127 0" result="hardAlpha"/>
<feOffset/>
<feGaussianBlur stdDeviation="2"/>
<feColorMatrix type="matrix" values="0 0 0 0 0.416246 0 0 0 0 0.367531 0 0 0 0 0.462614 0 0 0 1 0"/>
<feBlend mode="normal" in2="BackgroundImageFix" result="effect1_dropShadow_2_1746"/>
<feBlend mode="normal" in="SourceGraphic" in2="effect1_dropShadow_2_1746" result="shape"/>
</filter>
<linearGradient id="paint0_linear_2_1746" x1="18.5644" y1="4.34695" x2="3.43179" y2="15.0725" gradientUnits="userSpaceOnUse">
<stop stop-color="#F1F5F9" stop-opacity="0.01"/>
<stop offset="1" stop-color="#F1F5F9"/>
</linearGradient>
<linearGradient id="paint1_linear_2_1746" x1="84" y1="8.38991" x2="84" y2="40.172" gradientUnits="userSpaceOnUse">
<stop stop-color="#F2F2F2"/>
<stop offset="1" stop-color="#F2F2F2" stop-opacity="0.6"/>
</linearGradient>
</defs>
</svg>
